<svg width="50" height="48" viewBox="0 0 50 48" fill="none" xmlns="http://www.w3.org/2000/svg">
<path fill-rule="evenodd" clip-rule="evenodd" d="M9 29C10.933 29 12.5 27.433 12.5 25.5C12.5 23.567 10.933 22 9 22C7.067 22 5.5 23.567 5.5 25.5C5.5 27.433 7.067 29 9 29Z" stroke="#DBEAF4" stroke-width="2.25" stroke-linecap="round" stroke-linejoin="round"/>
<path d="M15.246 34.2239C13.7977 31.6638 10.9378 30.2421 8.02246 30.6329C5.10715 31.0238 2.72274 33.1487 2 35.9999" stroke="#DBEAF4" stroke-width="2.25" stroke-linecap="round" stroke-linejoin="round"/>
<path fill-rule="evenodd" clip-rule="evenodd" d="M41 29C42.933 29 44.5 27.433 44.5 25.5C44.5 23.567 42.933 22 41 22C39.067 22 37.5 23.567 37.5 25.5C37.5 27.433 39.067 29 41 29Z" stroke="#DBEAF4" stroke-width="2.25" stroke-linecap="round" stroke-linejoin="round"/>
<path d="M34.7545 34.2239C36.2027 31.6638 39.0627 30.2421 41.978 30.6329C44.8933 31.0238 47.2777 33.1487 48.0005 35.9999" stroke="#DBEAF4" stroke-width="2.25" stroke-linecap="round" stroke-linejoin="round"/>
<path fill-rule="evenodd" clip-rule="evenodd" d="M25 10C26.933 10 28.5 8.433 28.5 6.5C28.5 4.567 26.933 3 25 3C23.067 3 21.5 4.567 21.5 6.5C21.5 8.433 23.067 10 25 10Z" stroke="#DBEAF4" stroke-width="2.25" stroke-linecap="round" stroke-linejoin="round"/>
<path d="M32 17C31.1841 13.8002 28.3022 11.561 25 11.561C21.6978 11.561 18.8159 13.8002 18 17" stroke="#DBEAF4" stroke-width="2.25" stroke-linecap="round" stroke-linejoin="round"/>
<path fill-rule="evenodd" clip-rule="evenodd" d="M36.4963 42.6C36.6163 43.1882 36.4658 43.7992 36.0864 44.2643C35.7069 44.7294 35.1385 44.9995 34.5383 45H15.4582C14.858 44.9995 14.2896 44.7294 13.9101 44.2643C13.5307 43.7992 13.3802 43.1882 13.5002 42.6L17.6662 22.6C17.8562 21.6694 18.6745 21.0008 19.6243 21H30.3723C31.322 21.0008 32.1403 21.6694 32.3303 22.6L36.4963 42.6Z" stroke="#DBEAF4" stroke-width="2.25" stroke-linecap="round" stroke-linejoin="round"/>
<path fill-rule="evenodd" clip-rule="evenodd" d="M29.8339 39.858C29.8751 40.1451 29.7896 40.4359 29.5997 40.655C29.4097 40.8742 29.1339 41 28.8439 41H21.1519C20.8619 41 20.5862 40.8742 20.3962 40.655C20.2062 40.4359 20.1208 40.1451 20.1619 39.858L20.8759 34.858C20.9466 34.3656 21.3685 33.9999 21.8659 34H28.1299C28.6274 33.9999 29.0493 34.3656 29.1199 34.858L29.8339 39.858Z" stroke="#DBEAF4" stroke-width="2.25" stroke-linecap="round" stroke-linejoin="round"/>
</svg>
