<svg width="50" height="50" viewBox="0 0 50 50" fill="none" xmlns="http://www.w3.org/2000/svg">
<path d="M23.9992 48L18.6932 41.842C18.0069 41.0178 17.8124 39.89 18.183 38.8836C18.5537 37.8771 19.4331 37.1448 20.49 36.9626C21.547 36.7803 22.6209 37.1758 23.3072 38L27.9992 43.652V24C27.9992 22.3431 29.3423 21 30.9992 21C32.656 21 33.9992 22.3431 33.9992 24V36H39.9992C44.4174 36 47.9992 39.5817 47.9992 44V48" stroke="#DBEAF4" stroke-width="2.25" stroke-linecap="round" stroke-linejoin="round"/>
<path d="M28 17V8C28 6.89543 27.1046 6 26 6H4C2.89543 6 2 6.89543 2 8V42C2 43.1046 2.89543 44 4 44H13" stroke="#DBEAF4" stroke-width="2.25" stroke-linecap="round" stroke-linejoin="round"/>
<path d="M32 17V4C32 2.89543 31.1046 2 30 2H7" stroke="#DBEAF4" stroke-width="2.25" stroke-linecap="round" stroke-linejoin="round"/>
<path d="M8 32H22" stroke="#DBEAF4" stroke-width="2.25" stroke-linecap="round" stroke-linejoin="round"/>
<path fill-rule="evenodd" clip-rule="evenodd" d="M15 19C16.933 19 18.5 17.433 18.5 15.5C18.5 13.567 16.933 12 15 12C13.067 12 11.5 13.567 11.5 15.5C11.5 17.433 13.067 19 15 19Z" stroke="#DBEAF4" stroke-width="2.25" stroke-linecap="round" stroke-linejoin="round"/>
<path fill-rule="evenodd" clip-rule="evenodd" d="M22 26C21.1841 22.8002 18.3022 20.561 15 20.561C11.6978 20.561 8.81595 22.8002 8 26H22Z" stroke="#DBEAF4" stroke-width="2.25" stroke-linecap="round" stroke-linejoin="round"/>
</svg>
