<svg width="48" height="50" viewBox="0 0 48 50" fill="none" xmlns="http://www.w3.org/2000/svg">
<path fill-rule="evenodd" clip-rule="evenodd" d="M21.522 35.044C30.6468 35.044 38.044 27.6468 38.044 18.522C38.044 9.39715 30.6468 2 21.522 2C12.3972 2 5 9.39715 5 18.522C5 27.6468 12.3972 35.044 21.522 35.044Z" stroke="#DBEAF4" stroke-width="2.25" stroke-linecap="round" stroke-linejoin="round"/>
<path d="M42.9991 39.9999L33.2031 30.2039" stroke="#DBEAF4" stroke-width="2.25" stroke-linecap="round" stroke-linejoin="round"/>
<path d="M21 27V31" stroke="#DBEAF4" stroke-width="2.25" stroke-linecap="round" stroke-linejoin="round"/>
<path d="M28.3791 28.0001C27.2549 24.9163 24.28 22.9008 20.9991 23.0001C17.7184 22.9014 14.7439 24.9167 13.6191 28.0001" stroke="#DBEAF4" stroke-width="2.25" stroke-linecap="round" stroke-linejoin="round"/>
<path d="M13 38H16.626L17.5 48H24.5L25.376 38H29" stroke="#DBEAF4" stroke-width="2.25" stroke-linecap="round" stroke-linejoin="round"/>
<path d="M15.83 10.9541C18.7103 13.9378 23.1366 14.8273 26.946 13.1881" stroke="#DBEAF4" stroke-width="2.25" stroke-linecap="round" stroke-linejoin="round"/>
<path fill-rule="evenodd" clip-rule="evenodd" d="M21 20C24.3137 20 27 17.3137 27 14C27 10.6863 24.3137 8 21 8C17.6863 8 15 10.6863 15 14C15 17.3137 17.6863 20 21 20Z" stroke="#DBEAF4" stroke-width="2.25" stroke-linecap="round" stroke-linejoin="round"/>
</svg>
