<svg width="50" height="50" viewBox="0 0 50 50" fill="none" xmlns="http://www.w3.org/2000/svg">
<path fill-rule="evenodd" clip-rule="evenodd" d="M11 11.9399C13.7614 11.9399 16 9.70137 16 6.93994C16 4.17852 13.7614 1.93994 11 1.93994C8.23858 1.93994 6 4.17852 6 6.93994C6 9.70137 8.23858 11.9399 11 11.9399Z" stroke="#DBEAF4" stroke-width="2.25" stroke-linecap="round" stroke-linejoin="round"/>
<path d="M25 27.9399H47" stroke="#DBEAF4" stroke-width="2.25" stroke-linecap="round" stroke-linejoin="round"/>
<path d="M48 12.9399L44.478 22.6219C44.1913 23.4124 43.4408 23.939 42.6 23.9399H33" stroke="#DBEAF4" stroke-width="2.25" stroke-linecap="round" stroke-linejoin="round"/>
<path d="M34 27.9399V47.9399" stroke="#DBEAF4" stroke-width="2.25" stroke-linecap="round" stroke-linejoin="round"/>
<path d="M5 36.9399L2 47.9399" stroke="#DBEAF4" stroke-width="2.25" stroke-linecap="round" stroke-linejoin="round"/>
<path d="M2 17.9399L5 36.9399H11" stroke="#DBEAF4" stroke-width="2.25" stroke-linecap="round" stroke-linejoin="round"/>
<path fill-rule="evenodd" clip-rule="evenodd" d="M25.76 47.94C24.5586 47.9407 23.4726 47.2246 23 46.12L19.8 38.758C19.3274 37.6555 18.2435 36.9405 17.044 36.94H11C9.34315 36.94 8 35.5968 8 33.94V17.94C8.00004 16.6845 8.78185 15.5618 9.95938 15.1264C11.1369 14.6909 12.4611 15.0347 13.278 15.988L16.878 20.188C17.8288 21.2972 19.2171 21.9351 20.678 21.934H26C27.6569 21.934 29 23.2771 29 24.934C29 26.5908 27.6569 27.934 26 27.934H20.68C18.2661 27.9372 15.9184 27.145 14 25.68V30.94H17.044C20.6454 30.941 23.8994 33.0889 25.316 36.4L28.516 43.762C28.9115 44.6883 28.8158 45.7512 28.2612 46.5919C27.7066 47.4326 26.7672 47.939 25.76 47.94Z" stroke="#DBEAF4" stroke-width="2.25" stroke-linecap="round" stroke-linejoin="round"/>
<path d="M35 13.8381C35.2761 13.8381 35.5 14.062 35.5 14.3381C35.5 14.6143 35.2761 14.8381 35 14.8381C34.7239 14.8381 34.5 14.6143 34.5 14.3381C34.5 14.062 34.7239 13.8381 35 13.8381" stroke="#DBEAF4" stroke-width="2.25" stroke-linecap="round" stroke-linejoin="round"/>
<path d="M43 4.77015C38.3344 0.995889 31.6656 0.995889 27 4.77015" stroke="#DBEAF4" stroke-width="2.25" stroke-linecap="round" stroke-linejoin="round"/>
<path d="M30.334 9.60008C33.0556 7.39991 36.9444 7.39991 39.666 9.60008" stroke="#DBEAF4" stroke-width="2.25" stroke-linecap="round" stroke-linejoin="round"/>
</svg>
