<svg width="48" height="50" viewBox="0 0 48 50" fill="none" xmlns="http://www.w3.org/2000/svg">
<path fill-rule="evenodd" clip-rule="evenodd" d="M19.0006 24.9978C23.4188 24.9978 27.0006 21.4161 27.0006 16.9978C27.0006 12.5795 23.4188 8.9978 19.0006 8.9978C14.5823 8.9978 11.0005 12.5795 11.0005 16.9978C11.0005 21.4161 14.5823 24.9978 19.0006 24.9978Z" stroke="#DBEAF4" stroke-width="2.25" stroke-linecap="round" stroke-linejoin="round"/>
<path d="M12.343 21.4358L19.001 16.9978V8.9978" stroke="#DBEAF4" stroke-width="2.25" stroke-linecap="round" stroke-linejoin="round"/>
<path fill-rule="evenodd" clip-rule="evenodd" d="M42.415 10C42.7901 10.375 43.0009 10.8836 43.001 11.414V46C43.001 47.1046 42.1055 48 41.001 48H7.00098C5.89641 48 5.00098 47.1046 5.00098 46V4C5.00098 2.89543 5.89641 2 7.00098 2H33.587C34.1168 1.99905 34.6253 2.20837 35.001 2.582L42.415 10Z" stroke="#DBEAF4" stroke-width="2.25" stroke-linecap="round" stroke-linejoin="round"/>
<path d="M32.001 11.9978H37.001" stroke="#DBEAF4" stroke-width="2.25" stroke-linecap="round" stroke-linejoin="round"/>
<path d="M11.0005 29.9978H37.0005" stroke="#DBEAF4" stroke-width="2.25" stroke-linecap="round" stroke-linejoin="round"/>
<path d="M11.0005 35.9978H37.0005" stroke="#DBEAF4" stroke-width="2.25" stroke-linecap="round" stroke-linejoin="round"/>
<path d="M11.0005 41.9978H37.0005" stroke="#DBEAF4" stroke-width="2.25" stroke-linecap="round" stroke-linejoin="round"/>
<path d="M32.001 17.9978H37.001" stroke="#DBEAF4" stroke-width="2.25" stroke-linecap="round" stroke-linejoin="round"/>
<path d="M32.001 23.9978H37.001" stroke="#DBEAF4" stroke-width="2.25" stroke-linecap="round" stroke-linejoin="round"/>
</svg>
