<svg width="48" height="48" viewBox="0 0 48 48" fill="none" xmlns="http://www.w3.org/2000/svg">
<path fill-rule="evenodd" clip-rule="evenodd" d="M1.17413 8.71429C1.17413 7.76751 1.94165 7 2.88842 7H25.4599C26.4066 7 27.1741 7.76751 27.1741 8.71429V25.2857C27.1741 26.2325 26.4066 27 25.4599 27H2.88842C1.94165 27 1.17413 26.2325 1.17413 25.2857V8.71429Z" stroke="#DBEAF4" stroke-width="1.71429" stroke-linecap="round" stroke-linejoin="round"/>
<path d="M11.1741 27V31" stroke="#DBEAF4" stroke-width="1.71429" stroke-linecap="round" stroke-linejoin="round"/>
<path d="M17.1741 27V31" stroke="#DBEAF4" stroke-width="1.71429" stroke-linecap="round" stroke-linejoin="round"/>
<path fill-rule="evenodd" clip-rule="evenodd" d="M1.89615 32.4481C1.74 32.1365 1.75733 31.7661 1.9419 31.4704C2.12647 31.1748 2.45165 30.9966 2.80015 31.0001H45.5542C45.9009 31.0001 46.2229 31.1797 46.405 31.4747C46.5872 31.7697 46.6035 32.1381 46.4482 32.4481L44.1722 37.0001H4.17215L1.89615 32.4481Z" stroke="#DBEAF4" stroke-width="1.71429" stroke-linecap="round" stroke-linejoin="round"/>
<path d="M1.17413 23H27.1741" stroke="#DBEAF4" stroke-width="1.71429" stroke-linecap="round" stroke-linejoin="round"/>
<path fill-rule="evenodd" clip-rule="evenodd" d="M4.17426 37L1.56026 45.712C1.46917 46.0149 1.52674 46.343 1.71551 46.5968C1.90427 46.8506 2.20197 47.0001 2.51826 47H4.43026C4.87175 47.0002 5.26111 46.7108 5.38826 46.288L8.17426 37H4.17426Z" stroke="#DBEAF4" stroke-width="1.71429" stroke-linecap="round" stroke-linejoin="round"/>
<path fill-rule="evenodd" clip-rule="evenodd" d="M44.1741 37L46.7881 45.712C46.8792 46.0149 46.8217 46.343 46.6329 46.5968C46.4441 46.8506 46.1464 47.0001 45.8301 47H43.9181C43.4766 47.0002 43.0873 46.7108 42.9601 46.288L40.1741 37H44.1741Z" stroke="#DBEAF4" stroke-width="1.71429" stroke-linecap="round" stroke-linejoin="round"/>
<path fill-rule="evenodd" clip-rule="evenodd" d="M39.1741 15C43.0401 15 46.1741 11.866 46.1741 8C46.1741 4.13401 43.0401 1 39.1741 1C35.3081 1 32.1741 4.13401 32.1741 8C32.1741 11.866 35.3081 15 39.1741 15Z" stroke="#DBEAF4" stroke-width="1.71429" stroke-linecap="round" stroke-linejoin="round"/>
<path d="M39.1741 4V8H42.4241" stroke="#DBEAF4" stroke-width="1.71429" stroke-linecap="round" stroke-linejoin="round"/>
<path fill-rule="evenodd" clip-rule="evenodd" d="M36.1741 23H42.1741C42.7264 23 43.1741 23.4477 43.1741 24V31H35.1741V24C35.1741 23.4477 35.6218 23 36.1741 23Z" stroke="#DBEAF4" stroke-width="1.71429" stroke-linecap="round" stroke-linejoin="round"/>
<path d="M40.1741 23V19" stroke="#DBEAF4" stroke-width="1.71429" stroke-linecap="round" stroke-linejoin="round"/>
<path d="M36.1741 19L38.1741 23" stroke="#DBEAF4" stroke-width="1.71429" stroke-linecap="round" stroke-linejoin="round"/>
</svg>
