<svg width="50" height="50" viewBox="0 0 50 50" fill="none" xmlns="http://www.w3.org/2000/svg">
<path d="M48 45L46 41.132V32C46.084 28.444 41.838 25.274 38 22" stroke="#DBEAF4" stroke-width="2.25" stroke-linecap="round" stroke-linejoin="round"/>
<path d="M41.038 35.9999L35.936 30.7859C35.3169 30.1416 34.4001 29.8784 33.5335 30.0962C32.6669 30.314 31.9834 30.9794 31.7426 31.8399C31.5017 32.7003 31.7404 33.6239 32.368 34.2599L38 39.9999V42.9999C38.3062 44.7891 38.9879 46.4931 40 47.9999" stroke="#DBEAF4" stroke-width="2.25" stroke-linecap="round" stroke-linejoin="round"/>
<path d="M2 5L4 8.868V18C3.916 21.556 8.162 24.726 12 28" stroke="#DBEAF4" stroke-width="2.25" stroke-linecap="round" stroke-linejoin="round"/>
<path d="M8.96289 14L14.0649 19.214C14.684 19.8583 15.6008 20.1216 16.4674 19.9038C17.334 19.686 18.0174 19.0205 18.2583 18.1601C18.4991 17.2996 18.2605 16.376 17.6329 15.74L12.0009 10V7C11.6946 5.21085 11.013 3.50681 10.0009 2" stroke="#DBEAF4" stroke-width="2.25" stroke-linecap="round" stroke-linejoin="round"/>
<path d="M12 17.104V47C12 47.5523 12.4477 48 13 48H35" stroke="#DBEAF4" stroke-width="2.25" stroke-linecap="round" stroke-linejoin="round"/>
<path d="M23 6H16" stroke="#DBEAF4" stroke-width="2.25" stroke-linecap="round" stroke-linejoin="round"/>
<path d="M38 32.896V21" stroke="#DBEAF4" stroke-width="2.25" stroke-linecap="round" stroke-linejoin="round"/>
<path d="M27 32H16" stroke="#DBEAF4" stroke-width="2.25" stroke-linecap="round" stroke-linejoin="round"/>
<path d="M34 26H16" stroke="#DBEAF4" stroke-width="2.25" stroke-linecap="round" stroke-linejoin="round"/>
<path d="M25 38H16" stroke="#DBEAF4" stroke-width="2.25" stroke-linecap="round" stroke-linejoin="round"/>
<path d="M42 10C42 14.4183 38.4183 18 34 18C29.5817 18 26 14.4183 26 10C26 5.58172 29.5817 2 34 2" stroke="#DBEAF4" stroke-width="2.25" stroke-linecap="round" stroke-linejoin="round"/>
<path d="M42 4.00024L34.708 11.2922C34.5204 11.4803 34.2657 11.586 34 11.586C33.7343 11.586 33.4796 11.4803 33.292 11.2922L31 9.00025" stroke="#DBEAF4" stroke-width="2.25" stroke-linecap="round" stroke-linejoin="round"/>
</svg>
