<svg width="48" height="48" viewBox="0 0 48 48" fill="none" xmlns="http://www.w3.org/2000/svg">
<g clip-path="url(#clip0_1_795)">
<path d="M34 39.3999C41.696 40.0499 47 41.4199 47 42.9999C47 45.1999 36.704 46.9999 24 46.9999C11.296 46.9999 1 45.1999 1 42.9999C1 41.4199 6.27 40.0539 13.916 39.3999" stroke="#EDF4F9" stroke-width="2" stroke-linecap="round" stroke-linejoin="round"/>
<path fill-rule="evenodd" clip-rule="evenodd" d="M41 14C43.4853 14 45.5 11.9853 45.5 9.5C45.5 7.01472 43.4853 5 41 5C38.5147 5 36.5 7.01472 36.5 9.5C36.5 11.9853 38.5147 14 41 14Z" stroke="#EDF4F9" stroke-width="2" stroke-linecap="round" stroke-linejoin="round"/>
<path fill-rule="evenodd" clip-rule="evenodd" d="M41 16C37.6863 16 35 18.6863 35 22V27H38L39 36H43L44 27H47V22C47 18.6863 44.3137 16 41 16Z" stroke="#EDF4F9" stroke-width="2" stroke-linecap="round" stroke-linejoin="round"/>
<path fill-rule="evenodd" clip-rule="evenodd" d="M7 14C9.48528 14 11.5 11.9853 11.5 9.5C11.5 7.01472 9.48528 5 7 5C4.51472 5 2.5 7.01472 2.5 9.5C2.5 11.9853 4.51472 14 7 14Z" stroke="#EDF4F9" stroke-width="2" stroke-linecap="round" stroke-linejoin="round"/>
<path fill-rule="evenodd" clip-rule="evenodd" d="M7 16C3.68629 16 1 18.6863 1 22V27H4L5 36H9L10 27H13V22C13 18.6863 10.3137 16 7 16Z" stroke="#EDF4F9" stroke-width="2" stroke-linecap="round" stroke-linejoin="round"/>
<path fill-rule="evenodd" clip-rule="evenodd" d="M24 12C27.0376 12 29.5 9.53757 29.5 6.5C29.5 3.46243 27.0376 1 24 1C20.9624 1 18.5 3.46243 18.5 6.5C18.5 9.53757 20.9624 12 24 12Z" stroke="#EDF4F9" stroke-width="2" stroke-linecap="round" stroke-linejoin="round"/>
<path fill-rule="evenodd" clip-rule="evenodd" d="M31 21C31 17.134 27.866 14 24 14C20.134 14 17 17.134 17 21V27H20.166L21 37H27L27.834 27H31V21Z" stroke="#EDF4F9" stroke-width="2" stroke-linecap="round" stroke-linejoin="round"/>
</g>
<defs>
<clipPath id="clip0_1_795">
<rect width="48" height="48" fill="white"/>
</clipPath>
</defs>
</svg>
